<svg width="61" height="61" viewBox="0 0 61 61" fill="none" xmlns="http://www.w3.org/2000/svg">
<rect width="61" height="61" rx="30.5" fill="#D9D9D9"/>
<rect x="3" y="3" width="55" height="55" rx="27.5" fill="#181818"/>
<g clip-path="url(#clip0_25_381)">
<path fill-rule="evenodd" clip-rule="evenodd" d="M39.6461 38.3232C40.8258 40.0937 41.6474 40.1343 42.0556 40.0697C42.4637 40.005 43.2326 39.7125 43.8074 37.6641C44.3886 35.6099 44.4737 32.5642 43.9023 28.9565C43.3309 25.3487 42.3088 22.4784 41.1213 20.7043C39.9412 18.9314 39.1223 18.8928 38.7118 18.9578C38.3013 19.0228 37.5348 19.315 36.9599 21.3634C36.3783 23.4152 36.2936 26.4633 36.865 30.071C37.4364 33.6788 38.4585 36.5492 39.6461 38.3232ZM33.3464 30.6283C33.8922 34.0743 34.8544 37.1585 36.1637 39.4591L19.5286 35.9669C18.8684 35.8281 18.2659 35.492 17.8009 35.0031C17.3359 34.5142 17.0304 33.8956 16.9249 33.2293C16.8193 32.5629 16.9187 31.8802 17.2099 31.2715C17.501 30.6629 17.9702 30.157 18.5552 29.821L33.2923 21.3599C32.7603 23.9522 32.801 27.1848 33.3464 30.6283ZM42.6129 43.5883C47.3044 42.8452 48.6522 36.173 47.4209 28.3992C46.1897 20.6253 42.846 14.6961 38.1545 15.4392C36.6039 15.6848 35.1097 16.21 33.75 16.9928L16.784 26.7303C15.5723 27.4256 14.6005 28.4727 13.9974 29.7328C13.3943 30.993 13.1884 32.4066 13.4069 33.7864C13.6255 35.1663 14.2582 36.4471 15.2212 37.4592C16.1842 38.4713 17.432 39.1668 18.7992 39.4537L20.8562 39.8853C20.6694 40.6579 20.6397 41.46 20.7687 42.2443C20.8976 43.0285 21.1828 43.7789 21.6071 44.4509C22.0315 45.1229 22.5865 45.7029 23.2391 46.1564C23.8918 46.61 24.6289 46.9279 25.4067 47.0913C26.1845 47.2547 26.9872 47.2603 27.7672 47.1077C28.5472 46.9551 29.2886 46.6475 29.9475 46.2031C30.6065 45.7587 31.1694 45.1865 31.6031 44.5205C32.0368 43.8544 32.3323 43.1081 32.4722 42.3257L37.9439 43.4718C39.48 43.7961 41.0625 43.8356 42.6129 43.5883ZM28.982 41.5897L24.3488 40.621C24.254 40.936 24.2257 41.2672 24.2657 41.5936C24.3056 41.9201 24.4129 42.2347 24.5808 42.5175C24.7486 42.8003 24.9734 43.0452 25.2409 43.2366C25.5083 43.428 25.8126 43.5618 26.1345 43.6295C26.4563 43.6971 26.7887 43.6972 27.1106 43.6297C27.4325 43.5622 27.7369 43.4286 28.0044 43.2373C28.272 43.046 28.4969 42.8012 28.6649 42.5185C28.8329 42.2357 28.9403 41.9212 28.9804 41.5947" fill="#DEDEDE"/>
</g>
<defs>
<clipPath id="clip0_25_381">
<rect width="38" height="38" fill="white" transform="translate(9.26221 15.2061) rotate(-9)"/>
</clipPath>
</defs>
</svg>
