<svg width="27" height="34" viewBox="0 0 27 34" fill="none" xmlns="http://www.w3.org/2000/svg">
<path d="M3.03 33.75C2.19625 33.75 1.48312 33.4531 0.890625 32.8594C0.298125 32.2656 0.00125 31.5537 0 30.7237V14.28C0 13.4475 0.296875 12.735 0.890625 12.1425C1.48437 11.55 2.19687 11.2525 3.02812 11.25H5.625V7.5C5.625 5.41125 6.35313 3.63937 7.80937 2.18437C9.26437 0.728125 11.0363 0 13.125 0C15.2137 0 16.9863 0.728125 18.4425 2.18437C19.8988 3.64062 20.6262 5.4125 20.625 7.5V11.25H23.2219C24.0544 11.25 24.7669 11.5469 25.3594 12.1406C25.9519 12.7344 26.2488 13.4469 26.25 14.2781V30.7219C26.25 31.5544 25.9531 32.2669 25.3594 32.8594C24.7656 33.4519 24.0531 33.7487 23.2219 33.75H3.03ZM13.125 25.3125C13.9163 25.3125 14.5825 25.0413 15.1237 24.4988C15.6663 23.9575 15.9375 23.2913 15.9375 22.5C15.9375 21.7087 15.6663 21.0425 15.1237 20.5012C14.5813 19.96 13.915 19.6887 13.125 19.6875C12.335 19.6863 11.6687 19.9575 11.1263 20.5012C10.5837 21.0425 10.3125 21.7087 10.3125 22.5C10.3125 23.2913 10.5837 23.9575 11.1263 24.4988C11.6675 25.0413 12.3337 25.3125 13.125 25.3125ZM7.5 11.25H18.75V7.5C18.75 5.9375 18.2031 4.60938 17.1094 3.51562C16.0156 2.42188 14.6875 1.875 13.125 1.875C11.5625 1.875 10.2344 2.42188 9.14062 3.51562C8.04688 4.60938 7.5 5.9375 7.5 7.5V11.25Z" fill="#DEDEDE"/>
</svg>
